<?xml version="1.0" encoding="UTF-8" standalone="no"?>
<!-- Generator: Adobe Illustrator 16.0.0, SVG Export Plug-In . SVG Version: 6.00 Build 0)  -->

<svg
   xmlns:dc="http://purl.org/dc/elements/1.1/"
   xmlns:cc="http://creativecommons.org/ns#"
   xmlns:rdf="http://www.w3.org/1999/02/22-rdf-syntax-ns#"
   xmlns:svg="http://www.w3.org/2000/svg"
   xmlns="http://www.w3.org/2000/svg"
   xmlns:sodipodi="http://sodipodi.sourceforge.net/DTD/sodipodi-0.dtd"
   xmlns:inkscape="http://www.inkscape.org/namespaces/inkscape"
   version="1.1"
   id="Layer_1"
   x="0px"
   y="0px"
   width="1000px"
   height="743.84px"
   viewBox="-146.221 -172.351 1000 743.84"
   enable-background="new -146.221 -172.351 1000 743.84"
   xml:space="preserve"
   sodipodi:docname="Jurassic_Park.svg"
   inkscape:version="0.92.4 (5da689c313, 2019-01-14)"><metadata
   id="metadata7101"><rdf:RDF><cc:Work
       rdf:about=""><dc:format>image/svg+xml</dc:format><dc:type
         rdf:resource="http://purl.org/dc/dcmitype/StillImage" /><dc:title></dc:title></cc:Work></rdf:RDF></metadata><defs
   id="defs7099" /><sodipodi:namedview
   pagecolor="#ffffff"
   bordercolor="#666666"
   borderopacity="1"
   objecttolerance="10"
   gridtolerance="10"
   guidetolerance="10"
   inkscape:pageopacity="0"
   inkscape:pageshadow="2"
   inkscape:window-width="1920"
   inkscape:window-height="1017"
   id="namedview7097"
   showgrid="false"
   inkscape:zoom="0.8973822"
   inkscape:cx="564.8799"
   inkscape:cy="229.70148"
   inkscape:window-x="1912"
   inkscape:window-y="-8"
   inkscape:window-maximized="1"
   inkscape:current-layer="Layer_1" />
<g
   id="g7094">
	<g
   id="g7015">
		<path
   fill="#FFF300"
   d="M852.812,203.814v254.762H614.075l-0.769,1.552c-70.852,73.339-159.414,110.394-263.383,110.394    c-103.964,0-192.526-37.055-265.688-110.394v-1.552h-229.49V203.814h123.985v-3.859c0-102.681,36.197-189.914,109.354-262.485    c71.622-73.343,159.416-108.854,261.84-108.854c101.658-0.001,188.68,35.513,260.3,108.854    c73.159,72.569,109.358,159.806,109.358,262.485v3.859H852.812z"
   id="path7011" />
		<path
   d="M349.924,571.489c-103.488,0-193.11-37.238-266.373-110.678l-0.282-0.283v-0.984h-229.49V202.846h123.985v-2.892    c0-102.458,36.889-191.003,109.642-263.172c70.713-72.412,159.041-109.134,262.521-109.134    c102.456-0.001,190.267,36.721,260.991,109.146c72.744,72.156,109.635,160.7,109.635,263.16v2.892h133.227v256.697H614.676    l-0.674,1.256C543.047,534.247,454.198,571.489,349.924,571.489z M85.203,459.727c72.835,72.878,161.896,109.827,264.721,109.827    c103.678,0,192.021-37.006,262.584-109.992l0.967-1.953h238.369V204.781H718.617v-4.826c0-101.926-36.698-190.007-109.074-261.798    c-70.355-72.049-157.702-108.574-259.617-108.573c-102.938,0-190.802,36.525-261.147,108.562    C16.395,9.95-20.302,98.031-20.302,199.955v4.826h-123.985v252.828h229.49V459.727z"
   id="path7013" />
	</g>
	<path
   fill="#00A0FF"
   d="M590.975-43.232c68.538,67.168,101.65,148.227,101.65,243.186c0,94.186-33.112,175.25-101.65,242.415   c-66.232,67.936-147.093,101.133-241.049,101.133c-94.722,0-175.582-33.197-242.583-101.133   C39.573,375.204,5.687,294.137,5.687,199.954c0-94.958,33.887-176.018,101.656-243.185   c67.001-67.937,147.861-101.134,242.583-101.134c93.954,0,174.816,33.196,241.047,101.133H590.975z"
   id="path7017" />
	<path
   d="M683.385,199.954c0-93.412-31.572-172.157-97.031-237.781c-65.462-65.621-144.012-98.046-236.428-98.044   c-93.953,0-171.737,32.422-237.194,98.044C47.27,27.794,14.929,106.541,14.929,199.954c0,92.642,32.341,171.388,97.803,237.012   c65.459,65.62,143.241,98.039,237.194,98.043c92.416,0,170.966-32.427,236.428-98.043   C651.813,371.341,683.385,292.595,683.385,199.954z M597.906-49.408C665.674,18.53,700.327,102.68,700.327,199.954   c0,96.504-34.653,180.652-102.425,248.591c-68.537,67.938-151.712,102.677-247.979,102.677   c-97.801,0-180.974-34.742-248.745-102.677C32.64,380.606-2.015,296.458-2.015,199.954c0-97.273,34.655-181.426,103.194-249.36   c67.771-67.938,150.944-101.904,248.745-101.904C446.191-151.311,529.367-117.348,597.906-49.408z"
   id="path7019" />
	<path
   fill="#FF2700"
   d="M683.563,199.955c0,92.641-31.625,171.512-97.085,237.136c-65.461,65.616-144.136,98.096-236.552,98.096   c-93.953-0.004-171.86-32.476-237.319-98.096c-65.461-65.624-97.854-144.495-97.854-237.136   c0-93.414,32.393-172.284,97.854-237.907c65.459-65.622,143.366-98.096,237.319-98.096c92.416-0.001,171.091,32.475,236.552,98.096   C651.938,27.671,683.563,106.542,683.563,199.955z"
   id="path7021" />
	<path
   d="M-119.843,230.837h949.549v206.128h-949.549V230.837z"
   id="path7023" />
	<path
   d="M-122.151,439.282V228.519h954.939v210.763H-122.151z"
   id="path7025" />
	<path
   d="M344.537,469.386l3.078,2.32l3.854-1.548l2.309-3.857c0,3.857,1.538,6.948,2.309,5.405l15.403-7.722   c5.392-1.547,6.934,0,3.085,1.542l-3.085,6.18l6.934-1.548c-3.082,3.858-3.082,6.952-1.542,6.952l6.161-6.952l6.932-12.352   l3.85-5.405l3.851-1.543l3.852,1.543l6.159-2.313l2.314,2.313c0,1.548,1.54,2.318,3.077,1.548h6.161   c1.543,0,2.313,0.771,1.543,2.316l2.311,5.402l9.24,0.771l-3.85,3.087c-9.244,0-9.244,0.774-1.542,3.861l10.013,4.629h-6.16   c1.539,3.091,1.539,3.861,0,3.861h-3.851l-2.313,1.545l0.771,6.178l7.701,5.403l10.783-2.32c2.309-5.4,0.769-6.944-3.083-3.857   l-2.309,0.774h-2.313l3.853-4.632c2.31-1.546,3.85-3.089,2.31-3.858l-2.31-5.404l0.769-10.038c1.541-1.541,3.081-1.541,5.392,0   l2.311-6.948c3.081-3.859,5.39-4.632,7.7-3.859l7.7,3.859c3.853,1.542,6.932,3.087,5.391,5.407l-5.391,1.541   c-0.769-1.541-2.309,0-4.622,0.771c0,3.861,0.772,5.404,3.854,3.087l8.474-1.542l3.079,5.401l-7.702,0.772l-5.389,1.548   l10.012,2.313c5.388-0.77,7.702-0.77,7.702,3.092l-0.771,4.631l-6.932,3.859l3.85,3.083l-0.769,3.866l7.702-1.546v-6.178   l2.309-3.857l1.54-3.861l2.313,6.178c2.309-2.316,3.85-2.316,3.85-1.544c-1.541,6.942-1.541,9.263,0,9.263   c1.54,0,2.311-2.318,2.311-6.178l3.08-5.403l3.85-3.857l2.311-1.549v5.406l1.546,1.546l6.156-3.861l5.394,0.772l4.618,1.545   c-4.618,2.318-7.703,5.403-6.161,6.176c2.311,1.546,5.39,1.546,6.161,0l7.706-2.315c3.846,1.543,9.236-1.544,14.626-6.175   l12.321-10.81h3.083l-1.541,5.405c-21.562,20.844-50.059,37.057-82.404,48.636l-57.757,15.44l-54.678,9.261   c-28.495,1.546-67.003-3.857-115.518-17.755c-46.208-11.581-83.941-33.968-110.897-63.304   c11.549,9.263,18.482,13.126,20.793,13.126l3.851,2.314l2.313-2.317l3.079-10.807c0.769,3.085,2.311,3.087,3.851-0.774l2.312-3.858   l2.311-1.541l3.078,6.174l10.013-8.494l5.392-1.545l-1.539,3.861l-2.311,2.314l-3.851,9.267l12.321-5.407l1.54,5.407l1.539,1.543   l6.161-1.543l5.392,2.313c3.851,1.549,4.621,3.092,3.851,3.861c-1.542,1.545-1.542,3.091,0,3.091l3.85,2.313l0.773-1.542   c1.537-6.176,1.537-10.035,0-10.035c-3.853-1.546-4.621-2.316-2.313-5.407l1.539-3.859h-3.079l-3.852,3.089   c0,6.178-0.77,7.721-2.309,3.861c-1.538-3.091-1.538-5.403,0-7.724l3.85-5.404l-3.85-2.314l5.392-3.859h4.621l3.846-5.405   l3.853-2.314l-3.853,7.72l10.784-7.72h3.852v2.314l7.701,1.545l-6.93,3.86l7.702,3.859c6.93,0,7.698,0,6.93,0.771   c-3.081,3.091-3.081,3.859,0,3.859l4.619,3.089l3.852-1.541l3.08-3.865l2.311,1.549c1.541,0.768,2.309,0,3.85-1.545l2.311-2.316   l3.082-1.548v3.86h4.62l3.08,1.545h6.16l-3.85,4.631h7.698c-6.159,1.547-9.242,3.089-7.698,3.859h6.162l5.391,3.087l1.539,2.32   h4.621c3.851-2.32,5.392-5.407,1.54-6.178v-3.089l1.541-2.314l-6.932-5.405l3.078-2.317v-3.858l4.621,5.407l3.083,6.174   l3.851,2.314l2.309-4.631l2.311-1.545c1.543,0,1.543,0.002,1.543-1.544l2.309-6.176l3.851-2.316l-0.77,4.633l2.309,1.542   l2.308-1.542l1.545,7.716l3.851-3.856c1.539-3.859,3.85-4.63,5.39-4.63c2.311,0,3.851,0.771,2.311,2.315l-2.311,2.316l-3.081,7.72   l-2.309,3.861h5.39c2.311-3.861,3.851-3.859,3.851-0.774l-3.088,3.863H344.537z M347.615,480.969v-3.089h-3.078l-3.852,1.545   l3.079,2.318L347.615,480.969z M347.615,488.684c0-1.541,0-3.085-1.538-3.085l-3.851,1.544l1.538,3.861l0.772-1.543   L347.615,488.684z M373.031,483.284l5.392,1.543l2.309-1.543l-2.309-2.314h-5.392V483.284z M386.896,480.969l3.847,2.316   l3.081,1.545l3.853-3.087l-1.542-2.318l-2.311-2.317l-3.081-1.542l-0.769,1.542h-3.078V480.969z M390.742,489.462l-3.847,3.086   c-0.771,0.772-0.772,0.772-0.002,2.313c6.93,1.546,7.697,2.318,3.849,2.318l-2.309,1.54l2.309,1.549l5.392-5.407l-1.543-5.399   H390.742L390.742,489.462z M278.308,469.386l-1.542,2.32v2.313h2.309l3.083-2.313v-3.862l-3.852,1.542H278.308z M278.308,483.284   v1.543h2.309l1.541-1.543l-1.541-3.86v2.318L278.308,483.284z M289.859,481.74h-1.54l-1.542,3.087h3.082V481.74z M292.169,480.969   l5.39,0.772l2.311-3.861l-2.311-3.861l-3.079-0.77l-2.311,3.858V480.969z M305.259,489.462l3.853-3.861   c0.767-0.774,0-2.317-1.542-3.859h-2.313l-3.079,5.405L305.259,489.462L305.259,489.462z M324.514,484.827l3.853,2.32   c3.846,1.537,4.615,0,4.615-2.32c0-3.085-0.77-3.857-3.849-3.085l-2.311-2.318l-1.54,1.546L324.514,484.827z M325.282,494.861   l3.851-1.54l-0.767-2.316h-3.084V494.861z M399.987,498.72c-1.546,1.549-1.546,2.321-0.002,3.865l3.852-0.004   c2.309,0,3.849,0.004,3.849-1.54l-1.54-3.859h-2.309l-2.313-2.32L399.987,498.72L399.987,498.72z M386.125,504.126l0.771,0.771   l3.078-0.771l-3.078-1.545L386.125,504.126z M405.376,492.55l8.473,4.632h3.851l1.538-2.32l-2.309-3.857h-3.08l-0.772-1.542   l-3.077,1.542l-0.774-2.32h-3.851C403.838,489.462,403.836,491.004,405.376,492.55L405.376,492.55z M411.537,481.74l1.539,3.859   l0.772,1.544l1.538-2.316l1.542-3.857l-3.08-1.546L411.537,481.74z M450.041,456.262v3.861l2.311-2.316l-0.768-3.089   L450.041,456.262z M447.733,483.284l0.771,2.317h3.849l3.081-2.317l-3.081-2.314h-2.311L447.733,483.284z M232.099,467.842   l-1.539,1.544c2.311,0.772,3.85,0.776,3.85,2.32h2.311c0-3.862,0-5.405-0.769-3.862l-3.081-2.317L232.099,467.842L232.099,467.842z    M215.156,485.601l-1.541,1.546l1.541,2.315l-2.311,1.542l-3.079,2.32l3.079,3.085l2.311,0.772l3.851-2.32l1.54-1.541   c0.772-3.858,0.772-6.174,0-6.174L215.156,485.601z M228.247,485.601l3.852,3.861l7.705,1.542l4.619-1.542   c3.081-0.778,3.852-0.776,3.852,0l1.54,3.858l5.39-0.772h2.311l2.311,2.313h3.851v-6.177l-4.621-3.857h-5.393v-3.085l2.311-3.861   l-4.619-0.772l-3.85,3.861l-3.081-3.861c1.539-1.542,3.081-3.088,1.539-3.858l-3.852-3.091v3.86l-2.307,3.089l-1.542,2.317   l-1.542,3.86l-2.311-1.544l-3.85-3.861l-3.851,3.089L228.247,485.601L228.247,485.601z M249.815,463.985   c1.538,1.542,1.538,2.313,0,2.313v1.545l3.848,2.316l3.853-0.772l-1.542-3.859l-2.312-3.087L249.815,463.985z M272.916,489.462   l-1.542,1.542l-0.768,1.546c-1.541,0.771-1.541,2.313-0.001,3.857l3.85-1.546l0.772-1.541l1.538-2.316l-1.538-1.543   L272.916,489.462L272.916,489.462z M193.595,480.969l4.621,0.772l5.391-0.772v-3.089h-1.54l-3.851,1.545L193.595,480.969z    M185.893,485.601c2.311,3.861,3.851,3.861,3.851,3.085l0.769-3.859l-3.85-3.857L185.893,485.601L185.893,485.601z    M202.067,487.143l-2.313,2.319l3.853,3.086c2.312,0.772,3.85,0.772,2.312-1.544l-2.312-5.405L202.067,487.143z"
   id="path7027" />
	<path
   d="M479.734,54.521c2.562,1.646-0.704,6.055-3.079,6.156C476.609,57.553,478.822,56.687,479.734,54.521z M514.625,137.644   c-1.62,7.683-4.09,28.661-17.446,24.63C500.988,152.058,510.404,147.447,514.625,137.644z M478.708,127.382   c-1.514,4.999-3.153,18.731-12.316,19.499C461.365,138.267,476.578,135.335,478.708,127.382z M507.443,70.941   c0.074-5.275,12.07-2.898,8.209,1.025c-3.627,7.319-8.87,13.021-16.419,16.419C502.536,83.137,506.572,78.622,507.443,70.941   L507.443,70.941z M509.769,69.348c-0.093,0.034-0.182,0.071-0.271,0.109C509.587,69.419,509.676,69.383,509.769,69.348z    M432.426,161.863c0.728,0.813,1.443,1.633,2.153,2.465c-5.899-5.046-11.375-10.519-16.417-16.42l-0.002-0.001l0,0   c-20.727-15.026-60.425-26.559-75.94-45.153c-7.576-9.08-5.882-21.828-15.394-30.787c-2.235,7.002-2.426,16.045-6.157,21.551   c0-7.869,0-15.735,0-23.603c-4.891-1.128-1.413,6.113-5.131,6.157c1.559-2.31,2.177-10.534-2.052-10.263   c-4.029,11.707-1.898,29.572-8.209,38.998c1.049-6.034,2.781-18.345-2.053-21.552c-9.114,5.6-9.671,28.641-18.474,37.972   c0.352-8.2,4.083-13.023,4.107-21.553c-6.758,5.901-10.542,14.773-11.29,26.683c-10.484,3.537-12.042,16.006-18.471,23.602   c3.716-17.558,24.656-36.802,5.133-51.311c-4.088,18.146-6.758,37.712-17.446,49.258c-0.376-4.533,2.592-9.547,3.077-15.394   c0.801-9.615,0.244-23.134-6.155-26.682c-2.624,0.115-2.038,3.438-2.053,6.157c-0.378,4.067,0.94,9.834-1.026,12.314   c-3.304-0.226-4.342,1.815-8.209,1.026c-10.173,7.804-6.525,22.292,0,30.786c-3.321-0.37-5.917-4.861-9.236-2.054   c0,3.763,0,7.526,0,11.289c0,3.42,0,6.841,0,10.263c1.912,8.693,8.646,12.563,16.42,15.393c2.087-6.122,3.185-13.234,10.262-14.367   c2.677,1.771,2.826,6.068,6.159,7.184c10.827,4.575,19.579-2.791,24.63-5.131c7.532-3.492,19.288-3.722,20.522-11.289   c-2.443-5.493-0.392-12.681,1.025-17.445c-13.326-17.014,22.444-33.046,35.92-18.472c-13.196-1.906-19.327,3.252-26.684,7.184   c1.419,3.845-1.164,5.737,1.026,9.236c5.807,0.946,7.209-5.814,13.341-7.185c10.699-2.391,23.937,2.824,27.708,10.263   c-5.177-3.374-12.715-4.389-21.551-4.105c-8.927,4.072-11.143,14.857-20.524,18.472c4.944,8.784,0.077,18.004-4.107,23.604   c-16.791,2.245-26.292,5.752-43.101,7.184c-3.53,3.312-4.911,8.772-4.104,16.42c10.488-2.43,35.795,3.691,38.997-13.341   c15.085-1.698,29.183-10.583,27.707-22.577c12.448-7.396,36.276,0.646,40.023,8.212c-6.841-5.062-24.753-6.463-28.735,2.053   c6.14,1.942-3.507,3.35-1.026,8.209c9.347,2.654,12.222-6.582,21.551-5.13c10.606,1.65,19.136,17.104,16.419,29.761   c-2.167-8.781-7.078-14.815-13.34-19.5c-19.538-3.502-24.397,17.193-41.049,7.187c-8.018,13.187-28.277,7.896-35.92,21.548h-67.728   c-2.058-5.465-6.733-8.316-13.342-9.234c0.566,3.194,0.839,6.688,2.052,9.234h-5.104c0.109-8.668-2.575-14.543-7.208-18.471   c-11.399-0.916-14.22-10.411-23.604-13.341c-0.425,12.833,0.416,24.406,5.418,31.812h-8.497   c-5.826-9.564-6.529-24.257-12.314-33.863c-3.759,4.45-10.668,5.752-14.367,10.262c0.244,10.15-1.15,15.58,1.025,23.602h-7.185   c-4.102-7.528-2.758-20.502-6.156-28.734c-2.732,3.738-3.956,12.23-11.288,8.212c1.015,8.972,4.8,18.745,12.302,20.522h-16.264   c0.391-0.285,0.691-0.623,0.882-1.023c-2.798-3.02-4.729-6.903-7.185-10.265c-3.215-4.396-9.71,3.35-9.234,9.236   c0,0.685,0,1.368,0,2.052H13.482c-0.079-34.851-0.596-106.813,18.408-125.815c0.127-0.127,0.267-0.268,0.414-0.419l-0.002,0.011   c3.503-0.26,4.929-2.595,9.236-2.054c4.827,5.093,8.547,11.293,10.26,19.499c6.212-0.973,11.063-3.306,15.394-6.158   c0.601-6.073-1.003-9.942-2.052-14.367c3.023-7.922,11.797-10.096,22.576-10.261c4.381,1.774,1.698,10.615,5.131,13.341   c14.396-2.742-0.461-28.058,17.445-23.604c7.148,1.778,3.315,13.59,14.367,13.341c5.171-3.383-1.183-18.284,4.107-21.551   c9.046,3.952,15.79,10.205,23.602,15.393c6.554-4.05,0.893-20.316,7.184-24.627c6.897,4.389,10.385,12.191,16.421,17.444   c8.444-2.501,6.355-15.537,10.262-22.576c6.004,3.915,5.651,14.189,13.34,16.42c6.218-3.699-0.848-12.076,2.052-17.445   c5.021,2.846,4.78,10.955,12.315,11.288c4.393-8.17-7.187-13.663-4.104-20.524c4.539,1.617,4.989,7.324,10.262,8.21   c14.065-4.945,0.223-24.592,6.157-30.786c5.853,0.646,6.453,6.544,11.288,8.211c8.509-8.672-4.022-15.182-4.105-24.63   c8.426,0.126,10.111,6.992,17.447,8.211c3.455-8.199-7.404-15.563-6.159-21.552c5.581-0.107,4.812,6.136,11.288,5.13   c2.309-10.97-10.868-15.047-12.313-25.655c11.112-5.484,18.92,12.527,27.707,3.078c-2.895-11.814-7.803-21.616-14.366-29.761   c12.26-9.707,27.154,16.438,42.075,4.105c-0.849-6.336-7.738-6.629-7.185-14.366c-3.418-3.425-10.406-3.276-12.314-8.211   c11.604-19.023,25.21,9,38.995,6.156c0.28-6.435-4.815-7.498-3.077-15.393c-2.32-5.548-10.294-5.441-9.236-14.367   c9.998,2.318,18.42,6.209,26.682,10.262c12.269-3.125,20.798-9.99,35.92-10.262c3.381-2.092,7.195-3.749,10.262-6.156   c8.991-2.225,13.089,0.256,19.499-3.079c5.197-2.705,6.296-11.799,16.419-8.212c5.669,15.539,34.597,7.822,31.811,31.814   c13.115-5.099,14.025,6.564,20.526,13.341c6.107,6.365,15.416,9.198,22.578,14.367c5.756,4.154,9.429,11.537,15.393,15.394   c16.859,10.901,36.334,17.283,49.258,31.813c14.396,8.99,37.954,15.534,38.997,19.498c7.152,12.154,24.361,25.512,25.655,43.102   c0.93,12.626-12.414,28.964-21.55,33.865c-4.487-4.408-6.212-11.579-10.263-16.42c-5.226,1.389-8.258,3.315-9.238-3.078   c-4.617-1.197-1.106,5.732-6.154,4.105c-4.937,1.515-0.947-5.896-5.132-5.131c-1.371,1.024-2.016,2.774-4.104,3.079   c-3.49,0.067-1.572-5.271-5.132-5.131c-33.214,7.575-60.534-14.68-88.256-22.578c-4.192-1.824-7.315-9.946-14.366-11.288   c-3.536-0.672-8.208,2.404-13.341,2.053c-8.084-0.554-14.362-6.674-19.497-6.156c-5.484,0.553-10.049,7.625-15.396,8.209   c-3.867,0.423-4.201-3.463-8.208-1.025c0.693,7.516,11.424,4.995,15.391,9.236l0,0c4.769,4.81,11.045,8.111,13.342,15.392v0.001   l0,0c-0.564,7.083,6.048,12.398,4.105,17.445c-6.608,3.228-6.066-8.765-16.419-5.131c-0.724,7.222,1.568,11.43,5.131,14.366   c0.729,23.082,14.488,32.541,26.68,44.128c14.371,13.657,27.862,29.579,46.182,36.944c8.337,3.351,18.573,2.172,21.552,13.341   c-3.026,3.613-7.324,5.39-11.288,6.158c-31.684,6.143-54.9-8.175-68.758-24.63C433.871,163.497,433.154,162.675,432.426,161.863   L432.426,161.863z M641.115,228.978c5.639-0.011,11.307-0.019,16.987-0.022l0.014,0.022H641.115z M224.204,216.665   c3.665-1.124,4.065-5.513,8.211-6.157c-2.945-4.237-2.896-11.471-10.265-11.289c0,1.025,0,2.055,0,3.08   C222.99,206.933,220.175,215.221,224.204,216.665L224.204,216.665z M199.574,178.695c-3.013,18.747,5.889,25.58,17.447,29.761   C219.003,190.738,207.84,186.164,199.574,178.695z M192.39,186.904c0.279-7.12-0.56-13.124-3.077-17.446   c-4.192,1.625-7.962,3.671-9.236,8.21C183.588,181.34,185.91,186.201,192.39,186.904z M210.863,165.353   c1.387,0.322,1.959,1.46,4.105,1.026c-0.24-6.604-1.649-12.035-1.026-19.499c-3.294-0.9-2.127,2.66-4.104,3.078   c-0.259-11.713-8.421-15.523-15.394-20.524c0.54,9.379,6.82,13.019,9.236,20.524c-3.831-1.64-4.563-6.384-9.236-7.184   c-1.389,5.869,3.032,6.542,1.025,10.264c3.01-1.174,3.813-0.606,5.132,2.052C203.591,158.94,207.013,162.363,210.863,165.353z    M209.837,125.332c-0.782-4.008-1.128-8.452-6.157-8.211C203.678,121.91,204.923,125.454,209.837,125.332z M213.942,113.015   c-2.376,4.124-0.356,12.644-1.025,18.472C217.926,129.525,220.84,114.768,213.942,113.015z M279.618,90.439   c-3.336,3.85-3.669,10.699-4.104,17.446C281.688,106.874,278.988,96.99,279.618,90.439z M508.469,26.813   c4.569,8.085,18.01,7.3,30.786,7.184C547.721,17.585,511.637,9.334,508.469,26.813z M485.891,24.759   c10.441,5.362,25.899-11.156,26.682-18.473c1.567-14.649-13.859-19.064-22.576-30.786c-7.33-9.856-10.997-21.069-20.526-17.446   c-7.763,10.742,5.01,22.171,4.106,30.787c-0.712,6.79-6.234,4.833-8.21,12.314c0.803,6.039,8.06,5.626,9.236,11.289   C478.511,16.406,481.29,21.493,485.891,24.759L485.891,24.759z M416.107-18.342c-0.022,5.385,6.55,12.148,12.316,12.315   c8.337,0.243,20.282-17.265,22.578-23.604c3.898-10.774-3.923-38.328-13.342-40.022c-5.534-0.995-12.28,3.546-13.342,7.184   c-3.659,12.55,7.914,13.199,9.238,25.657C427.769-28.029,416.151-28.867,416.107-18.342L416.107-18.342z M522.836,159.195   c0.936,4.041-1.268,13.766-6.159,15.394C513.47,168,521.207,164.286,522.836,159.195z M516.677,150.987   c0.911,5.032-3.443,13.646-7.183,17.444C504.004,162.378,515.625,157.182,516.677,150.987z M498.206,147.907   c0.101,3.494-7.876,16.524-14.367,10.264C485.725,151.844,495.613,153.523,498.206,147.907z M483.839,132.513   c0.558,6.386-2.353,18.163-9.238,20.525C471.289,143.742,481.767,139.805,483.839,132.513z M466.392,123.278   c4.008,2.633-2.521,20.131-9.234,12.315C458.48,129.733,465.07,129.138,466.392,123.278z M499.233,122.251   c-0.282,9.988-3.93,25.484-14.368,28.735C483.904,139.677,496.484,133.25,499.233,122.251z M457.157,117.121   c0.733,2.819-2.501,10.474-7.183,11.289C449.314,121.591,455.439,121.56,457.157,117.121z M454.078,104.806   c0.516,5.434-6.078,17.697-12.315,16.42C440.238,114.046,452.043,111.797,454.078,104.806z M441.765,104.806   c-2.148,2.384-4.041,9.055-8.211,6.156C434.064,106.685,438.194,106.025,441.765,104.806z M435.606,96.596   c1.761,1.828-1.882,6.961-5.131,7.184C427.795,100.351,433.95,98.899,435.606,96.596z M591.592,90.438   c2.83,8.475-8.44,10.344-14.367,13.341C582.39,99.709,584.215,92.296,591.592,90.438z M585.435,84.283   c4.204,1.889-3.684,8.32-6.154,10.262C577.846,91.702,583.298,86.965,585.435,84.283z M579.281,82.23   c-0.537,8.359-5.569,12.22-11.292,15.392C572.099,92.837,570.69,82.533,579.281,82.23z M556.702,80.176   c3.936,4.817-4.582,14.432-9.238,17.445C550.504,91.766,553.789,86.16,556.702,80.176z M540.281,80.176   c2.378,5.482-2.169,12.862-7.183,14.368C535.575,89.836,538.279,85.357,540.281,80.176z M571.068,81.202   c-1.914,9.716-8.068,15.191-16.421,18.472C559.585,93.845,560.611,74.863,571.068,81.202z M540.281,100.702   c1.785-5.069,4.124-18.445,8.208-24.629C557.144,81.079,545.15,96.062,540.281,100.702z M539.255,75.045   c-3.731,6.191-8.641,11.201-14.367,15.394C529.032,85.22,528.978,70.751,539.255,75.045z M527.965,72.993   c-2.756,8.873-10.557,12.701-15.393,19.498C514.202,87.185,517.305,69.296,527.965,72.993z M504.364,64.784   c-0.55,11.078-7.819,15.442-12.315,22.576c-0.442-6.271,6.817-13.694,7.183-22.576C500.942,64.784,502.652,64.784,504.364,64.784z    M491.024,61.705c1.026,0,2.052,0,3.077,0c0.014,7.882-5.41,10.326-8.208,15.393C484.444,72.885,490.468,67.328,491.024,61.705   L491.024,61.705z M486.916,57.599c1.404,2.955-2.002,8.563-6.154,9.236C483.427,64.37,482.281,58.094,486.916,57.599z"
   id="path7029" />
	<path
   fill="#FFFFFF"
   d="M-75.924,351.809v-0.002h0.006l-0.002,0.004h-0.004V351.809z"
   id="path7031" />
	<path
   fill="#FFFFFF"
   d="M-78.262,298.18v-0.008h0.012L-78.262,298.18z"
   id="path7033" />
	<path
   fill="#FFFFFF"
   d="M-75.91,351.796c-0.002,0.007-0.004,0.007-0.008,0.011h0.061c-0.021,0.018-0.048,0.024-0.066,0.042v-0.038   h-0.012C-75.927,351.807-75.92,351.803-75.91,351.796z"
   id="path7035" />
	<path
   fill="#FFFFFF"
   d="M-36.913,271.682c0.047-0.019,0.063-0.064,0.094-0.095c0.002,0.006,0.002,0.016,0.002,0.022   L-36.913,271.682z"
   id="path7037" />
	<path
   fill="#FFFFFF"
   d="M-20.247,380.979c0.002-0.008,0.01-0.014,0.012-0.018c0.002,0.004,0.002,0.01,0.006,0.012   C-20.233,380.973-20.241,380.979-20.247,380.979L-20.247,380.979z"
   id="path7039" />
	<path
   fill="#FFFFFF"
   d="M26.345,388.805c0.006-0.007,0.014-0.007,0.022-0.015c0,0.008,0,0.015,0,0.021   C26.359,388.809,26.353,388.805,26.345,388.805z"
   id="path7041" />
	<path
   fill="#FFFFFF"
   d="M293.439,391.111c-0.002,0.015,0,0.03-0.002,0.045c-0.02-0.004-0.026-0.015-0.048-0.021   C293.406,391.125,293.423,391.122,293.439,391.111z"
   id="path7043" />
	<path
   fill="#FFFFFF"
   d="M248.264,306.63v-0.004h0.005v0.004H248.264z"
   id="path7045" />
	<path
   fill="#FFFFFF"
   d="M230.989,364.644L230.989,364.644c-0.047,0.036-0.101,0.061-0.162,0.061c0,0,0.003,0,0.003,0.002   C230.888,364.698,230.938,364.669,230.989,364.644z"
   id="path7047" />
	<path
   fill="#FFFFFF"
   d="M254.903,366.632v-0.004h0.001L254.903,366.632L254.903,366.632z"
   id="path7049" />
	<path
   fill="#FFFFFF"
   d="M248.269,306.651c-0.007-0.011-0.017-0.021-0.024-0.03c0.008,0,0.012,0.006,0.021,0.006   c0-0.002,0-0.007,0-0.009c0.004,0,0.004,0.003,0.008,0.007c0,0,0,0.002-0.004,0.002V306.651L248.269,306.651z"
   id="path7051" />
	<path
   fill="#FFFFFF"
   d="M199.849,385.912l0.004-0.016l0.009,0.012L199.849,385.912z"
   id="path7053" />
	<path
   fill="#FFFFFF"
   d="M195.531,343.329L195.531,343.329c0.006,0,0.012,0.002,0.018,0.002c-0.006,0.006-0.014,0.013-0.021,0.021   v-0.015h0.004V343.329L195.531,343.329z"
   id="path7055" />
	<path
   id="path1966"
   fill="#FFFFFF"
   d="M550.984,276.628c12.17,19.692,13.427,50.318,3.425,71.257   c-8.442,18.121-27.513,31.248-45.945,35.619l-1.546,1.882l1.234,36.567c-11.87,1.247-24.674,1.247-36.245,1.557   c3.438-60.308,4.995-114.063-0.635-174.382C500.965,241.942,533.16,249.752,550.984,276.628" />
	<path
   id="path1974"
   fill="#FF2700"
   d="M539.724,281.313c9.691,18.756,10.937,46.258,0.325,64.69   c-9.69,17.5-27.203,26.257-46.26,26.878c-0.944,12.816-0.944,27.501-1.256,39.071c-1.247,1.246-3.75,0.935-4.995,0.312   l1.88-107.823l-1.88-45.945c5.63-2.804,13.75-0.624,20.314-0.313C520.968,260.687,532.228,270.065,539.724,281.313" />
	<path
   id="path1978"
   fill="#FFFFFF"
   d="M534.731,285.061c9.066,17.823,9.378,44.378-0.936,61.566   c-9.066,13.749-23.128,21.869-39.07,21.869c-0.936-34.686-1.245-70.931-1.245-106.563c4.06-1.558,8.743-0.314,12.814,0.32   C517.542,265.682,529.424,273.827,534.731,285.061" />
	<path
   id="path2002"
   fill="#FFFFFF"
   d="M750.687,265.383c1.247,14.373-0.622,31.562,1.559,44.999   c10.623-13.128,15.008-29.991,20.313-45.935c9.38,3.437,19.07,8.432,28.125,13.752l-27.813,48.747l0.936,4.695   c10.324,20.314,21.571,39.994,32.508,59.997l-24.375,14.062l-2.503-3.127c-7.498-16.553-14.063-33.741-23.441-49.372   c-2.492,0-3.748,2.814-4.06,4.686l0.621,45.945c-9.378,1.245-19.055,0.31-28.435,0c1.557-44.689,0.624-95.009-2.191-139.696" />
	<path
   id="path2010"
   fill="#FFFFFF"
   d="M692.237,267.884c14.685,13.44,31.561,29.382,26.565,51.564   c-2.503,10.625-9.066,19.693-17.81,27.189c3.748,19.07,11.247,35.944,17.81,53.756l-21.871,7.187   c-7.51-12.816-12.814-27.189-20.001-40.006c-3.75,0.313-6.576,3.438-5.318,7.512l0.934,29.369   c-7.811,1.568-16.877,0.311-24.998,1.245l-0.622,0.946c-10.636,0.311-21.248,0.934-31.574,0.311l-2.191-30.938l-4.049-1.879   h-24.697l-1.557,1.569l-4.061,29.991l-27.501,0.635l-0.635-1.258c9.066-45.935,20.003-91.259,26.255-138.75   c12.816-0.322,28.746-0.944,42.497-0.322c5.63,39.693,12.205,80.01,23.439,117.824l0.947-1.882   c0.935-39.369,1.557-76.872,0.935-115.942c13.438-1.245,27.812-0.622,41.561-0.313" />
	<path
   id="path2026"
   fill="#FF2700"
   d="M697.866,286.629c8.119,9.691,11.558,22.818,8.432,35.635   c-2.815,9.366-8.12,18.435-16.565,24.686c4.372,16.253,10.325,32.807,15.32,49.371l-1.57,0.948l-2.179-2.191   c-5.629-14.687-10.937-29.694-17.188-44.377c-7.512,3.436-15.632,5.939-23.765,7.496c-2.491,12.507,0,23.441-0.623,37.19   c-0.934,1.558-3.437,1.882-4.995,1.247c0-41.876,1.559-81.568,0-122.821C670.989,269.441,686.607,274.75,697.866,286.629" />
	<path
   id="path2030"
   fill="#FF2700"
   d="M739.117,276.628c0,24.998-0.313,48.127,1.879,71.878   c17.812-21.56,29.682-45.622,40.307-69.997c1.568-0.322,2.826,0.624,3.748,1.869c-5.928,16.253-14.685,31.872-23.739,46.881   c9.055,20.936,20.626,40.938,31.249,61.565c0.936,2.503-2.191,3.125-3.437,4.06c-10.937-19.379-19.069-40.627-30.316-59.995   c-7.187,7.496-13.128,15.93-18.433,24.684v35.623c-2.193,1.259-6.253,0-4.696-3.438c0.312-39.057,0.312-77.507-1.257-115.321   C735.057,272.57,741.309,272.57,739.117,276.628" />
	<path
   id="path2050"
   fill="#FFFFFF"
   d="M694.117,290.691c8.432,10.002,9.379,24.685,5.007,36.568   c-6.265,14.996-22.506,26.256-37.814,26.256l-1.258-0.948c0.312-24.375-0.934-51.874,1.258-75.938   C674.425,275.695,685.673,281.001,694.117,290.691" />
	<path
   id="path2054"
   d="M529.101,300.693c4.694,16.876,1.568,35.944-13.115,46.879c-2.505,1.87-5.008,3.75-8.133,4.062   c-1.882-23.751-1.882-50.631,0-74.691C518.153,280.378,526.286,290.691,529.101,300.693" />
	<path
   id="path2058"
   fill="#FF2700"
   d="M608.164,277.251c10.937,39.696,18.446,80.945,24.064,121.885h-3.75l-5.63-36.254   l-0.933-1.247l-48.126,0.31c-3.438,10.937-4.385,22.818-7.187,33.755c0,2.191-2.815,2.191-4.374,1.569l-0.944-1.882l24.063-110.636   c0.635-3.438,0.934-10.001,7.198-7.5C597.853,276.628,603.171,276.628,608.164,277.251" />
	<path
   id="path2086"
   fill="#FFFFFF"
   d="M605.039,281.313c7.51,24.062,12.193,49.694,15.32,75.004   c-17.188,0.312-28.76,1.256-45.013,0c4.071-25.31,9.066-50.319,15.941-74.38C595.971,280.066,599.733,282.247,605.039,281.313" />
	<path
   id="path2094"
   d="M688.798,307.568c1.247,12.505-6.252,24.996-17.187,30.002c-2.814,0-0.623-3.748-1.882-5.006   c0.323-13.438-0.621-29.368,0.936-43.119C679.42,291.315,686.294,299.446,688.798,307.568" />
	<path
   id="path2102"
   d="M608.787,347.572c-6.563,1.247-13.738,0.623-20.314,0.313c2.193-16.255,3.75-33.753,10.002-48.749   C604.728,314.132,607.231,331.007,608.787,347.572" />
	<path
   id="path1970"
   fill="#FFFFFF"
   d="M-36.057,249.312c-2.909,48.785-2.909,96.601-4.52,147.318   c-1.301,8.086-3.888,16.157-10.995,21.644c-14.537,10.983-35.858,5.818-52.982,4.209l-1.287-1.3   c-1.288-11.306-1.288-23.91-1.609-34.569c8.394,1.621,18.09,3.552,26.162,0.321c5.497-5.163,5.82-12.271,5.82-19.377   c0.643-28.751-0.657-60.744-3.232-88.852c0.321-1.61-0.247-1.039-0.892-3.628l-0.087-4.447l-0.645-28.427" />
	<g
   id="g1982">
		<g
   id="g1988">
			<path
   id="path1990"
   fill="#ED1B2D"
   d="M-56.414,255.441l1.288,6.152l0.321,121.466c-0.644,9.362-6.128,18.733-15.18,21.968     c-7.107,1.931-13.57,3.241-21.643,1.931c-1.3-0.968-1.623-2.898-0.645-4.198c10.982-0.967,24.876,0.966,30.36-11.305     c3.553-10.006,3.232-21.644,3.232-33.282l-3.232-102.731C-60.611,254.154-58.358,254.475-56.414,255.441" />
		</g>
		<g
   id="g1992">
			<path
   id="path1994"
   fill="#FF2700"
   stroke="#ED1B2D"
   stroke-width="0.2128"
   d="M-56.414,255.441l1.288,6.152l0.321,121.466     c-0.644,9.362-6.128,18.733-15.18,21.968c-7.107,1.931-13.57,3.241-21.643,1.931c-1.3-0.968-1.623-2.898-0.645-4.198     c10.982-0.967,24.876,0.966,30.36-11.305c3.553-10.006,3.232-21.644,3.232-33.282l-3.232-102.731     C-60.611,254.154-58.358,254.475-56.414,255.441z" />
		</g>
	</g>
	<path
   id="path1998"
   fill="#FFFFFF"
   d="M335.149,275.153c-9.373,5.82-21.001,15.837-22.932,27.14   c0,16.48,14.215,26.807,20.343,40.379c4.854,25.53-16.789,42.976-31.338,62.032c-10.004-4.521-19.055-11.306-27.785-19.057   c10.017-7.439,25.531-15.515,26.819-29.729c2.589-17.767-14.214-28.75-19.377-43.93c-9.052-23.908,12.271-41.034,26.806-56.548   C317.38,260.938,326.111,268.369,335.149,275.153" />
	<path
   id="path2006"
   fill="#FFFFFF"
   d="M280.235,274.508c-9.695,7.429-21.643,17.445-21.643,30.696   c2.588,20.998,32.947,33.59,20.033,57.821c-6.463,14.871-17.124,28.429-27.785,41.678c-7.441-0.645-12.604-7.431-19.067-10.019   c-0.966,3.234-0.321,7.765,0.644,11.318c-10.005,1.286-18.733,0.965-29.715,0.323l-3.232-32.317   c-8.717-3.556-19.712-2.577-29.395-2.254l-1.944,3.22l-4.197,28.763l-28.105,0.321l-0.645-2.909   c-5.498,0.321-10.34,3.554-15.838,4.519c-7.428-12.269-11.626-26.806-19.054-39.41c-1.944,0.965-4.854,0.965-5.498,3.553v34.569   l-26.819,0.323l0.655-144.41l42.967,0.321c16.146,9.054,31.659,27.143,32.948,46.842c0.642,14.535-9.04,26.819-18.733,36.515   c1.609,13.247,5.163,26.806,11.947,38.445l2.588-3.23c9.695-39.092,18.089-78.516,23.91-119.534l1.931-0.979l40.711,0.32   c5.82,40.713,12.604,81.101,21.321,120.514l1.3,1.288c10.005-5.82,18.412-15.503,18.735-27.143   c-0.968-16.789-15.517-28.105-21.645-42.642c-7.107-22.609,11.626-39.412,26.163-55.236   C262.466,260.938,271.184,268.045,280.235,274.508" />
	<path
   id="path2014"
   fill="#FFFFFF"
   d="M435.949,278.385c-21.321,8.728-35.859,30.693-35.215,54.27   c0.657,16.479,8.072,30.371,20.033,41.354c5.808,4.198,12.271,7.439,18.735,9.695c-7.107,8.394-16.158,14.536-24.555,20.999   c-30.05-12.605-42.32-44.909-41.676-75.604c0.966-28.75,14.857-54.912,40.388-71.715   C422.056,261.904,429.163,270.955,435.949,278.385" />
	<path
   id="path2018"
   fill="#FFFFFF"
   d="M367.776,260.938c-4.521,44.587-2.912,94.98,0,140.854   c-10.02,1.624-21.001,1.301-31.018,1.301c3.875-45.887,4.854-98.547-0.645-144.1c9.052-1.609,20.356,0,31.018,0" />
	<path
   id="path2022"
   fill="#FFFFFF"
   d="M3.043,260.938c3.22,33.927,0.632,71.717-0.32,105.32c6.772,4.842,16.145,5.174,24.54,4.842   l1.61-2.256c3.23-35.548,0.644-73.656,0.977-108.229c9.374-1.286,20.666-0.963,31.017-0.321   c-3.554,45.874-5.174,92.716-3.23,140.856l-0.644,1.288l-26.499,4.209c-0.644-2.267,0-6.142-1.943-8.406   c-6.784,1.609-11.613,9.695-19.055,7.428c-10.649-4.84-21.645-9.695-31.004-18.412l-2.588-6.14   c-0.323-38.767,1.3-82.377-4.198-120.823l0.645-0.642H1.757" />
	<path
   id="path2034"
   fill="#ED1B2D"
   d="M122.899,282.904c7.752,10.338,11.306,23.587,8.075,36.836   c-2.911,10.017-9.04,19.055-17.769,25.196l14.536,48.14c-0.321,0.646-0.966,0.967-1.931,0.967   c-7.431-14.535-11.629-30.373-17.447-45.553c-7.752,2.909-16.158,6.463-25.196,7.75c-1.623,12.928,0,27.786-1.623,39.733h-3.875   l1.3-127.928C94.47,265.78,111.917,269.655,122.899,282.904"
   style="fill:#ff2700;fill-opacity:1" />
	<g
   id="g2038">
		<g
   id="g2044">
			<path
   id="path2046"
   fill="#FF2700"
   d="M-7.629,269.978l1.609,104.997c7.119,6.784,15.515,10.339,24.553,12.281     c8.407-3.888,16.158-10.349,23.587-17.124c1.302-32.316-0.966-68.816,0.323-101.764c0.979-0.658,2.265-0.337,3.553-0.337     l0.645,5.821l0.655,116.302c-0.655,1.621-2.265,1.621-3.553,1.943c-2.589-4.519-0.321-11.303-1.944-16.158l-24.553,16.158     c-10.339-0.965-20.679-6.784-27.142-15.514c-2.896-32.625-0.966-73.981-2.896-107.253     C-12.792,267.39-7.307,266.746-7.629,269.978" />
		</g>
	</g>
	<path
   id="path2062"
   fill="#FF2700"
   d="M197.525,272.887c8.73,40.388,17.447,83.031,22.287,125.354   c-1.931,0.642-2.575,0.32-4.519,0.32l-6.143-38.767c-15.18-2.588-33.913-1.622-49.427-0.644   c-4.198,11.626-4.198,25.196-9.04,36.822l-3.23-0.643l0.644-7.106l26.176-117.925c7.428-0.968,15.18-1.609,21.309-0.968" />
	<path
   id="path2066"
   fill="#FF2700"
   d="M355.825,273.866l-0.321,118.889c-1.288,0.967-2.911,1.609-4.521,0.644   c-1.944-41.354,2.577-82.054-0.643-122.12C351.307,268.701,357.77,269.668,355.825,273.866" />
	<path
   id="path2070"
   fill="#FF2700"
   d="M314.148,272.564v1.611c-9.693,10.017-17.445,21.976-14.214,36.514   c6.465,17.768,26.498,34.892,13.893,56.213c-4.197,8.073-9.051,15.824-16.158,22.287c-1.609,0.645-2.254-0.965-3.554-1.609   c2.588-6.463,9.372-10.982,12.284-17.447c5.484-9.372,9.358-23.909,2.909-33.926c-8.407-13.247-19.391-27.462-13.249-44.586   c2.909-7.751,8.072-14.858,14.214-21.321c1.61,0,3.232,0.979,3.875,2.267" />
	<path
   id="path2074"
   fill="#FF2700"
   d="M259.557,272.243c-1.609,5.164-6.784,9.373-9.372,14.213   c-17.124,25.52,14.87,42.001,15.193,65.588c-0.979,14.858-9.695,27.127-19.712,37.469c-1.289,0-2.268-0.646-3.233-1.933   c10.34-12.928,20.678-26.819,17.124-44.587c-7.428-16.482-24.552-30.694-17.444-51.372c3.23-7.429,7.106-14.535,13.247-20.987   C257.292,270.299,258.271,271.278,259.557,272.243" />
	<path
   id="path2078"
   fill="#FFFFFF"
   d="M123.543,294.542c4.842,11.949,3.232,28.107-4.519,38.124   c-9.696,10.661-21.322,18.092-35.548,18.092c-0.645-26.819-0.323-53.628,1.3-78.837C101.256,271.92,117.08,278.385,123.543,294.542   " />
	<path
   id="path2082"
   fill="#FF2700"
   d="M418.502,273.208v1.944c-20.666,17.446-32.947,40.378-28.738,67.519   c2.897,18.412,15.824,32.626,29.717,45.873c-1.622,1.289-2.588,2.91-4.853,2.254c-20.678-17.768-32.948-41.343-29.073-69.128   c3.232-19.391,13.57-36.836,29.394-49.75C416.572,271.264,417.537,272.242,418.502,273.208" />
	<path
   id="path2090"
   fill="#FFFFFF"
   d="M193.006,274.508c7.751,25.198,10.338,52.339,15.18,78.821   c-15.824,0.979-31.659,2.91-47.162,0c5.497-25.84,9.372-53.302,17.444-78.5C183.311,274.83,188.808,273.542,193.006,274.508" />
	<path
   id="path2098"
   d="M108.35,294.208c3.877,5.498,6.786,11.627,5.164,18.745c-3.231,8.717-9.683,18.733-19.055,21.643   c-2.254-15.192-0.645-32.959-1.289-49.104c0.968-2.267,2.589-0.657,3.877-0.657l0.645-1.288c1.943,3.556,7.749,6.465,10.66,10.662" />
	<path
   id="path2106"
   d="M193.971,326.847c0.645,5.818,2.266,11.305,1.61,17.124c-6.452,1.288-14.202,0.965-20.987,0.321   c1.933-16.803,5.163-33.927,10.981-49.751C190.417,304.237,191.706,315.863,193.971,326.847" />
</g>
</svg>